<?xml version="1.0" encoding="utf-8"?>
<!-- Generator: Adobe Illustrator 24.0.1, SVG Export Plug-In . SVG Version: 6.00 Build 0)  -->
<svg version="1.1" id="Layer_1" xmlns="http://www.w3.org/2000/svg" xmlns:xlink="http://www.w3.org/1999/xlink" x="0px" y="0px"
	 viewBox="0 0 800 800" style="enable-background:new 0 0 800 800;" xml:space="preserve">
<style type="text/css">
	.st0{fill-rule:evenodd;clip-rule:evenodd;fill:#FFFFFF;}
	.st1{fill-rule:evenodd;clip-rule:evenodd;fill:#FFFFFF;filter:url(#Adobe_OpacityMaskFilter);}
	.st2{mask:url(#e_1_);fill:#156037;}
	.st3{fill:#156037;}
	.st4{font-family:'NotoSansKR-Bold-KSCpc-EUC-H';}
	.st5{font-size:177.1159px;}
</style>
<circle shape-rendering="auto" color-rendering="auto" image-rendering="auto" class="st0" cx="400" cy="400" r="400"/>
<defs>
	<filter id="Adobe_OpacityMaskFilter" filterUnits="userSpaceOnUse" x="239.5" y="129.1" width="318.4" height="331.8">
		<feColorMatrix  type="matrix" values="1 0 0 0 0  0 1 0 0 0  0 0 1 0 0  0 0 0 1 0"/>
	</filter>
</defs>
<mask maskUnits="userSpaceOnUse" x="239.5" y="129.1" width="318.4" height="331.8" id="e_1_">
	<circle shape-rendering="auto" color-rendering="auto" image-rendering="auto" class="st1" cx="398.7" cy="295" r="400"/>
</mask>
<path shape-rendering="auto" color-rendering="auto" image-rendering="auto" class="st2" d="M398.7,129.1c-51.8,0-93.8,42-93.8,93.8
	c0,51.8,42,93.8,93.8,93.8c51.8,0,93.8-42,93.8-93.8C492.5,171.1,450.5,129.1,398.7,129.1L398.7,129.1z M482.9,314.9
	c-23,21.1-53,32.9-84.3,32.9c-31.2-0.1-61.2-11.8-84.2-32.8c-46.6,30.9-75,85.1-75,143.4c0,0.8,0.1,1.7,0.1,2.5h318.2
	c0-0.8,0.1-1.7,0.1-2.5C557.9,400,529.5,345.8,482.9,314.9L482.9,314.9z"/>
<text transform="matrix(1 0 0 1 271.0852 685.4287)" class="st3 st4 st5">MY</text>
</svg>
