<svg width="597" height="329" viewBox="0 0 597 329" fill="none" xmlns="http://www.w3.org/2000/svg">
<g clip-path="url(#clip0_3_43)">
<path d="M97.056 329H101.88V328.088H100.104V320.204H99.264C98.796 320.492 98.232 320.696 97.44 320.828V321.536H99.012V328.088H97.056V329Z" fill="#999999"/>
<path d="M141.528 329H147.048V328.064H144.612C144.168 328.064 143.64 328.1 143.172 328.148C145.248 326.192 146.628 324.404 146.628 322.64C146.628 321.068 145.644 320.048 144.072 320.048C142.956 320.048 142.188 320.564 141.468 321.344L142.104 321.956C142.596 321.38 143.22 320.936 143.94 320.936C145.032 320.936 145.548 321.68 145.548 322.688C145.548 324.188 144.288 325.952 141.528 328.364V329Z" fill="#999999"/>
<path d="M191.156 329.168C192.728 329.168 193.988 328.22 193.988 326.66C193.988 325.448 193.148 324.668 192.116 324.416V324.368C193.052 324.032 193.676 323.324 193.676 322.256C193.676 320.852 192.596 320.048 191.12 320.048C190.112 320.048 189.332 320.492 188.672 321.092L189.26 321.8C189.752 321.296 190.376 320.936 191.084 320.936C191.996 320.936 192.56 321.488 192.56 322.328C192.56 323.288 191.948 324.008 190.136 324.008V324.86C192.164 324.86 192.872 325.556 192.872 326.612C192.872 327.62 192.128 328.256 191.084 328.256C190.076 328.256 189.416 327.776 188.9 327.236L188.348 327.956C188.924 328.592 189.776 329.168 191.156 329.168Z" fill="#999999"/>
<path d="M238.068 329H239.1V320.204H237.888L234.228 325.856V326.576H240.276V325.712H235.38L237.384 322.712C237.624 322.28 237.864 321.836 238.08 321.404H238.14C238.104 321.86 238.068 322.568 238.068 323.012V329Z" fill="#999999"/>
<path d="M283.132 329.168C284.608 329.168 286.012 328.064 286.012 326.144C286.012 324.2 284.824 323.336 283.36 323.336C282.832 323.336 282.436 323.468 282.04 323.684L282.268 321.14H285.592V320.204H281.308L281.032 324.32L281.62 324.692C282.124 324.356 282.496 324.164 283.084 324.164C284.176 324.164 284.896 324.92 284.896 326.18C284.896 327.452 284.068 328.256 283.024 328.256C282.016 328.256 281.368 327.788 280.876 327.272L280.324 327.992C280.924 328.592 281.764 329.168 283.132 329.168Z" fill="#999999"/>
<path d="M329.612 329.168C330.968 329.168 332.132 328.016 332.132 326.312C332.132 324.464 331.172 323.552 329.684 323.552C328.976 323.552 328.16 323.984 327.62 324.692L327.656 325.568C328.244 324.692 328.952 324.356 329.516 324.356C330.572 324.356 331.1 325.112 331.1 326.312C331.1 327.5 330.452 328.304 329.612 328.304C328.376 328.304 327.692 327.068 327.692 324.812C327.692 321.932 328.724 320.96 329.96 320.96C330.488 320.96 331.028 321.212 331.364 321.62L331.976 320.948C331.496 320.432 330.824 320.048 329.912 320.048C328.208 320.048 326.66 321.368 326.66 324.812C326.66 327.716 327.92 329.168 329.612 329.168Z" fill="#999999"/>
<path d="M374.364 329H375.504C375.648 325.568 376.02 323.516 378.084 320.864V320.204H372.588V321.14H376.848C375.12 323.54 374.52 325.676 374.364 329Z" fill="#999999"/>
<path d="M421.348 329.168C422.992 329.168 424.108 328.172 424.108 326.888C424.108 325.688 423.388 325.016 422.62 324.572V324.512C423.148 324.104 423.796 323.324 423.796 322.388C423.796 321.044 422.884 320.084 421.384 320.084C420.004 320.084 418.96 320.972 418.96 322.304C418.96 323.228 419.512 323.9 420.16 324.344V324.392C419.356 324.824 418.54 325.64 418.54 326.828C418.54 328.184 419.728 329.168 421.348 329.168ZM421.948 324.236C420.916 323.828 419.968 323.36 419.968 322.304C419.968 321.464 420.556 320.888 421.36 320.888C422.308 320.888 422.86 321.584 422.86 322.448C422.86 323.108 422.548 323.708 421.948 324.236ZM421.372 328.34C420.316 328.34 419.524 327.656 419.524 326.72C419.524 325.88 420.016 325.184 420.736 324.728C421.972 325.232 423.052 325.676 423.052 326.852C423.052 327.728 422.38 328.34 421.372 328.34Z" fill="#999999"/>
<path d="M465.808 329.168C467.464 329.168 469 327.8 469 324.224C469 321.428 467.74 320.048 466.048 320.048C464.68 320.048 463.528 321.2 463.528 322.904C463.528 324.728 464.476 325.664 465.952 325.664C466.708 325.664 467.488 325.208 468.04 324.512L467.98 323.636C467.404 324.512 466.72 324.86 466.132 324.86C465.088 324.86 464.56 324.08 464.56 322.904C464.56 321.692 465.208 320.9 466.048 320.9C467.284 320.9 467.968 322.064 467.968 324.224C467.968 327.236 466.948 328.256 465.772 328.256C465.208 328.256 464.668 328.004 464.296 327.572L463.684 328.268C464.176 328.784 464.848 329.168 465.808 329.168Z" fill="#999999"/>
<path d="M507.056 329H511.88V328.088H510.104V320.204H509.264C508.796 320.492 508.232 320.696 507.44 320.828V321.536H509.012V328.088H507.056V329ZM515.992 329.168C517.648 329.168 518.716 327.644 518.716 324.572C518.716 321.524 517.648 320.048 515.992 320.048C514.312 320.048 513.244 321.524 513.244 324.572C513.244 327.644 514.312 329.168 515.992 329.168ZM515.992 328.28C514.984 328.28 514.3 327.164 514.3 324.572C514.3 322.016 514.984 320.924 515.992 320.924C516.988 320.924 517.66 322.016 517.66 324.572C517.66 327.164 516.988 328.28 515.992 328.28Z" fill="#999999"/>
</g>
<g clip-path="url(#clip1_3_43)">
<path d="M22.056 279H26.88V278.088H25.104V270.204H24.264C23.796 270.492 23.232 270.696 22.44 270.828V271.536H24.012V278.088H22.056V279ZM28.5443 281.28C29.6363 280.836 30.2963 279.936 30.2963 278.772C30.2963 277.98 29.9483 277.488 29.3723 277.488C28.9283 277.488 28.5563 277.776 28.5563 278.256C28.5563 278.748 28.9283 279.024 29.3483 279.024C29.5643 279.024 29.7563 278.964 29.9003 278.784L29.3723 277.992L29.4923 278.976C29.4923 279.708 29.0363 280.308 28.2923 280.644L28.5443 281.28ZM34.3321 279.168C35.9881 279.168 37.0561 277.644 37.0561 274.572C37.0561 271.524 35.9881 270.048 34.3321 270.048C32.6521 270.048 31.5841 271.524 31.5841 274.572C31.5841 277.644 32.6521 279.168 34.3321 279.168ZM34.3321 278.28C33.3241 278.28 32.6401 277.164 32.6401 274.572C32.6401 272.016 33.3241 270.924 34.3321 270.924C35.3281 270.924 36.0001 272.016 36.0001 274.572C36.0001 277.164 35.3281 278.28 34.3321 278.28ZM40.9883 279.168C42.6443 279.168 43.7123 277.644 43.7123 274.572C43.7123 271.524 42.6443 270.048 40.9883 270.048C39.3083 270.048 38.2403 271.524 38.2403 274.572C38.2403 277.644 39.3083 279.168 40.9883 279.168ZM40.9883 278.28C39.9803 278.28 39.2963 277.164 39.2963 274.572C39.2963 272.016 39.9803 270.924 40.9883 270.924C41.9843 270.924 42.6563 272.016 42.6563 274.572C42.6563 277.164 41.9843 278.28 40.9883 278.28ZM47.6446 279.168C49.3006 279.168 50.3686 277.644 50.3686 274.572C50.3686 271.524 49.3006 270.048 47.6446 270.048C45.9646 270.048 44.8966 271.524 44.8966 274.572C44.8966 277.644 45.9646 279.168 47.6446 279.168ZM47.6446 278.28C46.6366 278.28 45.9526 277.164 45.9526 274.572C45.9526 272.016 46.6366 270.924 47.6446 270.924C48.6406 270.924 49.3126 272.016 49.3126 274.572C49.3126 277.164 48.6406 278.28 47.6446 278.28Z" fill="#999999"/>
<path d="M21.528 236H27.048V235.064H24.612C24.168 235.064 23.64 235.1 23.172 235.148C25.248 233.192 26.628 231.404 26.628 229.64C26.628 228.068 25.644 227.048 24.072 227.048C22.956 227.048 22.188 227.564 21.468 228.344L22.104 228.956C22.596 228.38 23.22 227.936 23.94 227.936C25.032 227.936 25.548 228.68 25.548 229.688C25.548 231.188 24.288 232.952 21.528 235.364V236ZM28.5443 238.28C29.6363 237.836 30.2963 236.936 30.2963 235.772C30.2963 234.98 29.9483 234.488 29.3723 234.488C28.9283 234.488 28.5563 234.776 28.5563 235.256C28.5563 235.748 28.9283 236.024 29.3483 236.024C29.5643 236.024 29.7563 235.964 29.9003 235.784L29.3723 234.992L29.4923 235.976C29.4923 236.708 29.0363 237.308 28.2923 237.644L28.5443 238.28ZM34.3321 236.168C35.9881 236.168 37.0561 234.644 37.0561 231.572C37.0561 228.524 35.9881 227.048 34.3321 227.048C32.6521 227.048 31.5841 228.524 31.5841 231.572C31.5841 234.644 32.6521 236.168 34.3321 236.168ZM34.3321 235.28C33.3241 235.28 32.6401 234.164 32.6401 231.572C32.6401 229.016 33.3241 227.924 34.3321 227.924C35.3281 227.924 36.0001 229.016 36.0001 231.572C36.0001 234.164 35.3281 235.28 34.3321 235.28ZM40.9883 236.168C42.6443 236.168 43.7123 234.644 43.7123 231.572C43.7123 228.524 42.6443 227.048 40.9883 227.048C39.3083 227.048 38.2403 228.524 38.2403 231.572C38.2403 234.644 39.3083 236.168 40.9883 236.168ZM40.9883 235.28C39.9803 235.28 39.2963 234.164 39.2963 231.572C39.2963 229.016 39.9803 227.924 40.9883 227.924C41.9843 227.924 42.6563 229.016 42.6563 231.572C42.6563 234.164 41.9843 235.28 40.9883 235.28ZM47.6446 236.168C49.3006 236.168 50.3686 234.644 50.3686 231.572C50.3686 228.524 49.3006 227.048 47.6446 227.048C45.9646 227.048 44.8966 228.524 44.8966 231.572C44.8966 234.644 45.9646 236.168 47.6446 236.168ZM47.6446 235.28C46.6366 235.28 45.9526 234.164 45.9526 231.572C45.9526 229.016 46.6366 227.924 47.6446 227.924C48.6406 227.924 49.3126 229.016 49.3126 231.572C49.3126 234.164 48.6406 235.28 47.6446 235.28Z" fill="#999999"/>
<path d="M24.156 194.168C25.728 194.168 26.988 193.22 26.988 191.66C26.988 190.448 26.148 189.668 25.116 189.416V189.368C26.052 189.032 26.676 188.324 26.676 187.256C26.676 185.852 25.596 185.048 24.12 185.048C23.112 185.048 22.332 185.492 21.672 186.092L22.26 186.8C22.752 186.296 23.376 185.936 24.084 185.936C24.996 185.936 25.56 186.488 25.56 187.328C25.56 188.288 24.948 189.008 23.136 189.008V189.86C25.164 189.86 25.872 190.556 25.872 191.612C25.872 192.62 25.128 193.256 24.084 193.256C23.076 193.256 22.416 192.776 21.9 192.236L21.348 192.956C21.924 193.592 22.776 194.168 24.156 194.168ZM28.5443 196.28C29.6363 195.836 30.2963 194.936 30.2963 193.772C30.2963 192.98 29.9483 192.488 29.3723 192.488C28.9283 192.488 28.5563 192.776 28.5563 193.256C28.5563 193.748 28.9283 194.024 29.3483 194.024C29.5643 194.024 29.7563 193.964 29.9003 193.784L29.3723 192.992L29.4923 193.976C29.4923 194.708 29.0363 195.308 28.2923 195.644L28.5443 196.28ZM34.3321 194.168C35.9881 194.168 37.0561 192.644 37.0561 189.572C37.0561 186.524 35.9881 185.048 34.3321 185.048C32.6521 185.048 31.5841 186.524 31.5841 189.572C31.5841 192.644 32.6521 194.168 34.3321 194.168ZM34.3321 193.28C33.3241 193.28 32.6401 192.164 32.6401 189.572C32.6401 187.016 33.3241 185.924 34.3321 185.924C35.3281 185.924 36.0001 187.016 36.0001 189.572C36.0001 192.164 35.3281 193.28 34.3321 193.28ZM40.9883 194.168C42.6443 194.168 43.7123 192.644 43.7123 189.572C43.7123 186.524 42.6443 185.048 40.9883 185.048C39.3083 185.048 38.2403 186.524 38.2403 189.572C38.2403 192.644 39.3083 194.168 40.9883 194.168ZM40.9883 193.28C39.9803 193.28 39.2963 192.164 39.2963 189.572C39.2963 187.016 39.9803 185.924 40.9883 185.924C41.9843 185.924 42.6563 187.016 42.6563 189.572C42.6563 192.164 41.9843 193.28 40.9883 193.28ZM47.6446 194.168C49.3006 194.168 50.3686 192.644 50.3686 189.572C50.3686 186.524 49.3006 185.048 47.6446 185.048C45.9646 185.048 44.8966 186.524 44.8966 189.572C44.8966 192.644 45.9646 194.168 47.6446 194.168ZM47.6446 193.28C46.6366 193.28 45.9526 192.164 45.9526 189.572C45.9526 187.016 46.6366 185.924 47.6446 185.924C48.6406 185.924 49.3126 187.016 49.3126 189.572C49.3126 192.164 48.6406 193.28 47.6446 193.28Z" fill="#999999"/>
<path d="M24.068 151H25.1V142.204H23.888L20.228 147.856V148.576H26.276V147.712H21.38L23.384 144.712C23.624 144.28 23.864 143.836 24.08 143.404H24.14C24.104 143.86 24.068 144.568 24.068 145.012V151ZM27.5443 153.28C28.6363 152.836 29.2963 151.936 29.2963 150.772C29.2963 149.98 28.9483 149.488 28.3723 149.488C27.9283 149.488 27.5563 149.776 27.5563 150.256C27.5563 150.748 27.9283 151.024 28.3483 151.024C28.5643 151.024 28.7563 150.964 28.9003 150.784L28.3723 149.992L28.4923 150.976C28.4923 151.708 28.0363 152.308 27.2923 152.644L27.5443 153.28ZM33.3321 151.168C34.9881 151.168 36.0561 149.644 36.0561 146.572C36.0561 143.524 34.9881 142.048 33.3321 142.048C31.6521 142.048 30.5841 143.524 30.5841 146.572C30.5841 149.644 31.6521 151.168 33.3321 151.168ZM33.3321 150.28C32.3241 150.28 31.6401 149.164 31.6401 146.572C31.6401 144.016 32.3241 142.924 33.3321 142.924C34.3281 142.924 35.0001 144.016 35.0001 146.572C35.0001 149.164 34.3281 150.28 33.3321 150.28ZM39.9883 151.168C41.6443 151.168 42.7123 149.644 42.7123 146.572C42.7123 143.524 41.6443 142.048 39.9883 142.048C38.3083 142.048 37.2403 143.524 37.2403 146.572C37.2403 149.644 38.3083 151.168 39.9883 151.168ZM39.9883 150.28C38.9803 150.28 38.2963 149.164 38.2963 146.572C38.2963 144.016 38.9803 142.924 39.9883 142.924C40.9843 142.924 41.6563 144.016 41.6563 146.572C41.6563 149.164 40.9843 150.28 39.9883 150.28ZM46.6446 151.168C48.3006 151.168 49.3686 149.644 49.3686 146.572C49.3686 143.524 48.3006 142.048 46.6446 142.048C44.9646 142.048 43.8966 143.524 43.8966 146.572C43.8966 149.644 44.9646 151.168 46.6446 151.168ZM46.6446 150.28C45.6366 150.28 44.9526 149.164 44.9526 146.572C44.9526 144.016 45.6366 142.924 46.6446 142.924C47.6406 142.924 48.3126 144.016 48.3126 146.572C48.3126 149.164 47.6406 150.28 46.6446 150.28Z" fill="#999999"/>
<path d="M23.132 108.168C24.608 108.168 26.012 107.064 26.012 105.144C26.012 103.2 24.824 102.336 23.36 102.336C22.832 102.336 22.436 102.468 22.04 102.684L22.268 100.14H25.592V99.204H21.308L21.032 103.32L21.62 103.692C22.124 103.356 22.496 103.164 23.084 103.164C24.176 103.164 24.896 103.92 24.896 105.18C24.896 106.452 24.068 107.256 23.024 107.256C22.016 107.256 21.368 106.788 20.876 106.272L20.324 106.992C20.924 107.592 21.764 108.168 23.132 108.168ZM27.5443 110.28C28.6363 109.836 29.2963 108.936 29.2963 107.772C29.2963 106.98 28.9483 106.488 28.3723 106.488C27.9283 106.488 27.5563 106.776 27.5563 107.256C27.5563 107.748 27.9283 108.024 28.3483 108.024C28.5643 108.024 28.7563 107.964 28.9003 107.784L28.3723 106.992L28.4923 107.976C28.4923 108.708 28.0363 109.308 27.2923 109.644L27.5443 110.28ZM33.3321 108.168C34.9881 108.168 36.0561 106.644 36.0561 103.572C36.0561 100.524 34.9881 99.048 33.3321 99.048C31.6521 99.048 30.5841 100.524 30.5841 103.572C30.5841 106.644 31.6521 108.168 33.3321 108.168ZM33.3321 107.28C32.3241 107.28 31.6401 106.164 31.6401 103.572C31.6401 101.016 32.3241 99.924 33.3321 99.924C34.3281 99.924 35.0001 101.016 35.0001 103.572C35.0001 106.164 34.3281 107.28 33.3321 107.28ZM39.9883 108.168C41.6443 108.168 42.7123 106.644 42.7123 103.572C42.7123 100.524 41.6443 99.048 39.9883 99.048C38.3083 99.048 37.2403 100.524 37.2403 103.572C37.2403 106.644 38.3083 108.168 39.9883 108.168ZM39.9883 107.28C38.9803 107.28 38.2963 106.164 38.2963 103.572C38.2963 101.016 38.9803 99.924 39.9883 99.924C40.9843 99.924 41.6563 101.016 41.6563 103.572C41.6563 106.164 40.9843 107.28 39.9883 107.28ZM46.6446 108.168C48.3006 108.168 49.3686 106.644 49.3686 103.572C49.3686 100.524 48.3006 99.048 46.6446 99.048C44.9646 99.048 43.8966 100.524 43.8966 103.572C43.8966 106.644 44.9646 108.168 46.6446 108.168ZM46.6446 107.28C45.6366 107.28 44.9526 106.164 44.9526 103.572C44.9526 101.016 45.6366 99.924 46.6446 99.924C47.6406 99.924 48.3126 101.016 48.3126 103.572C48.3126 106.164 47.6406 107.28 46.6446 107.28Z" fill="#999999"/>
</g>
<path fill-rule="evenodd" clip-rule="evenodd" d="M60.0001 68.9999H560V309H60.0001V68.9999Z" fill="#FBF9F9" stroke="#B6B6B6"/>
<path fill-rule="evenodd" clip-rule="evenodd" d="M83.9999 167.625H114V309H83.9999V167.625Z" fill="#C8C8C8"/>
<path fill-rule="evenodd" clip-rule="evenodd" d="M129 177.844H159V309H129V177.844Z" fill="#C8C8C8"/>
<path fill-rule="evenodd" clip-rule="evenodd" d="M176 163.656H206V309H176V163.656Z" fill="#C8C8C8"/>
<path fill-rule="evenodd" clip-rule="evenodd" d="M223 218.344H253V309H223V218.344Z" fill="#C8C8C8"/>
<path fill-rule="evenodd" clip-rule="evenodd" d="M268 180.375H298V309H268V180.375Z" fill="#C8C8C8"/>
<path fill-rule="evenodd" clip-rule="evenodd" d="M314 196.563H344V309H314V196.563Z" fill="#C8C8C8"/>
<path fill-rule="evenodd" clip-rule="evenodd" d="M360 165.375H390V309H360V165.375Z" fill="#C8C8C8"/>
<path fill-rule="evenodd" clip-rule="evenodd" d="M406 135.5H436V309H406V135.5Z" fill="#C8C8C8"/>
<path fill-rule="evenodd" clip-rule="evenodd" d="M450 150.438H480V309H450V150.438Z" fill="#C8C8C8"/>
<path fill-rule="evenodd" clip-rule="evenodd" d="M497 150.438H527V309H497V150.438Z" fill="#C8C8C8"/>
<mask id="path-27-inside-1_3_43" fill="white">
<path fill-rule="evenodd" clip-rule="evenodd" d="M61 103H560V104H61V103Z"/>
</mask>
<path fill-rule="evenodd" clip-rule="evenodd" d="M61 103H560V104H61V103Z" fill="black" fill-opacity="0.01"/>
<path d="M61 103V102H60V103H61ZM560 103H561V102H560V103ZM560 104V105H561V104H560ZM61 104H60V105H61V104ZM61 104H560V102H61V104ZM559 103V104H561V103H559ZM560 103H61V105H560V103ZM62 104V103H60V104H62Z" fill="#E6E6E6" mask="url(#path-27-inside-1_3_43)"/>
<mask id="path-29-inside-2_3_43" fill="white">
<path fill-rule="evenodd" clip-rule="evenodd" d="M61 146H560V147H61V146Z"/>
</mask>
<path fill-rule="evenodd" clip-rule="evenodd" d="M61 146H560V147H61V146Z" fill="black" fill-opacity="0.01"/>
<path d="M61 146V145H60V146H61ZM560 146H561V145H560V146ZM560 147V148H561V147H560ZM61 147H60V148H61V147ZM61 147H560V145H61V147ZM559 146V147H561V146H559ZM560 146H61V148H560V146ZM62 147V146H60V147H62Z" fill="#E6E6E6" mask="url(#path-29-inside-2_3_43)"/>
<mask id="path-31-inside-3_3_43" fill="white">
<path fill-rule="evenodd" clip-rule="evenodd" d="M61 189H560V190H61V189Z"/>
</mask>
<path fill-rule="evenodd" clip-rule="evenodd" d="M61 189H560V190H61V189Z" fill="black" fill-opacity="0.01"/>
<path d="M61 189V188H60V189H61ZM560 189H561V188H560V189ZM560 190V191H561V190H560ZM61 190H60V191H61V190ZM61 190H560V188H61V190ZM559 189V190H561V189H559ZM560 189H61V191H560V189ZM62 190V189H60V190H62Z" fill="#E6E6E6" mask="url(#path-31-inside-3_3_43)"/>
<mask id="path-33-inside-4_3_43" fill="white">
<path fill-rule="evenodd" clip-rule="evenodd" d="M61 231H560V232H61V231Z"/>
</mask>
<path fill-rule="evenodd" clip-rule="evenodd" d="M61 231H560V232H61V231Z" fill="black" fill-opacity="0.01"/>
<path d="M61 231V230H60V231H61ZM560 231H561V230H560V231ZM560 232V233H561V232H560ZM61 232H60V233H61V232ZM61 232H560V230H61V232ZM559 231V232H561V231H559ZM560 231H61V233H560V231ZM62 232V231H60V232H62Z" fill="#E6E6E6" mask="url(#path-33-inside-4_3_43)"/>
<mask id="path-35-inside-5_3_43" fill="white">
<path fill-rule="evenodd" clip-rule="evenodd" d="M61 274H560V275H61V274Z"/>
</mask>
<path fill-rule="evenodd" clip-rule="evenodd" d="M61 274H560V275H61V274Z" fill="black" fill-opacity="0.01"/>
<path d="M61 274V273H60V274H61ZM560 274H561V273H560V274ZM560 275V276H561V275H560ZM61 275H60V276H61V275ZM61 275H560V273H61V275ZM559 274V275H561V274H559ZM560 274H61V276H560V274ZM62 275V274H60V275H62Z" fill="#E6E6E6" mask="url(#path-35-inside-5_3_43)"/>
<path fill-rule="evenodd" clip-rule="evenodd" d="M99.0001 169L144 178L191 165L239 219L283 181L329 198L376 166L421 137L465 151H513" fill="black" fill-opacity="0.01"/>
<path d="M99.0001 169L144 178L191 165L239 219L283 181L329 198L376 166L421 137L465 151H513" stroke="#666666" stroke-width="2"/>
<path d="M2.39 307.97L2.95 307.71C2.09 306.29 1.67 304.6 1.67 302.9C1.67 301.2 2.09 299.51 2.95 298.09L2.39 297.82C1.46 299.32 0.91 300.94 0.91 302.9C0.91 304.87 1.46 306.47 2.39 307.97ZM10.0589 297.73V304.28H10.8889V297.73H10.0589ZM10.6389 300.42V301.11H12.2289V300.42H10.6389ZM4.28891 302V302.69H4.98891C6.88891 302.69 7.95891 302.63 9.19891 302.37L9.10891 301.7C7.89891 301.95 6.84891 302 4.98891 302H4.28891ZM4.28891 298.51V302.37H5.10891V299.2H8.27891V298.51H4.28891ZM5.25891 305.9V306.58H11.2989V305.9H5.25891ZM5.25891 303.63V306.21H6.08891V303.63H5.25891ZM16.0281 298.16C14.6881 298.16 13.7281 298.91 13.7281 300.02C13.7281 301.12 14.6881 301.89 16.0281 301.89C17.3781 301.89 18.3381 301.12 18.3381 300.02C18.3381 298.91 17.3781 298.16 16.0281 298.16ZM16.0281 298.85C16.9081 298.85 17.5381 299.33 17.5381 300.02C17.5381 300.72 16.9081 301.19 16.0281 301.19C15.1481 301.19 14.5181 300.72 14.5181 300.02C14.5181 299.33 15.1481 298.85 16.0281 298.85ZM15.6581 302.89V306.5H16.4881V302.89H15.6581ZM19.6581 297.74V306.79H20.4781V297.74H19.6581ZM13.1681 303.34C14.8181 303.34 17.0381 303.31 19.0781 302.94L19.0181 302.32C17.0281 302.62 14.7381 302.64 13.0581 302.64L13.1681 303.34ZM24.4737 303.56H27.0337V302.86H24.4737V303.56ZM32.4668 299.44V299.89C32.4668 301.16 31.5768 302.28 30.2368 302.74L30.6468 303.39C32.1568 302.86 33.1468 301.52 33.1468 299.89V299.44H32.4668ZM32.6068 299.44V299.89C32.6068 301.45 33.6368 302.73 35.1468 303.23L35.5568 302.57C34.2168 302.15 33.2968 301.09 33.2968 299.89V299.44H32.6068ZM30.4668 298.95V299.62H35.2868V298.95H30.4668ZM32.4668 297.8V299.2H33.2968V297.8H32.4668ZM34.9868 300.52V301.21H37.2668V300.52H34.9868ZM36.8168 297.75V304.49H37.6468V297.75H36.8168ZM31.8768 305.9V306.58H37.8968V305.9H31.8768ZM31.8768 303.89V306.27H32.7068V303.89H31.8768ZM41.976 302.29V304.3H42.806V302.29H41.976ZM45.986 297.74V304.62H46.816V297.74H45.986ZM40.646 305.9V306.58H47.036V305.9H40.646ZM40.646 303.95V306.09H41.476V303.95H40.646ZM39.476 302.6C41.116 302.6 43.306 302.57 45.256 302.26L45.196 301.65C43.276 301.9 41.036 301.92 39.366 301.92L39.476 302.6ZM44.146 303.08V303.69H46.196V303.08H44.146ZM42.306 298.11C40.976 298.11 40.076 298.73 40.076 299.68C40.076 300.64 40.976 301.26 42.306 301.26C43.626 301.26 44.526 300.64 44.526 299.68C44.526 298.73 43.626 298.11 42.306 298.11ZM42.306 298.73C43.146 298.73 43.736 299.1 43.736 299.68C43.736 300.26 43.146 300.63 42.306 300.63C41.456 300.63 40.866 300.26 40.866 299.68C40.866 299.1 41.456 298.73 42.306 298.73ZM49.1052 307.97C50.0252 306.47 50.5752 304.87 50.5752 302.9C50.5752 300.94 50.0252 299.32 49.1052 297.82L48.5352 298.09C49.3952 299.51 49.8152 301.2 49.8152 302.9C49.8152 304.6 49.3952 306.29 48.5352 307.71L49.1052 307.97Z" fill="#999999"/>
<path d="M155.864 50.898C156.354 50.898 156.788 50.492 156.788 49.932C156.788 49.33 156.354 48.938 155.864 48.938C155.346 48.938 154.94 49.33 154.94 49.932C154.94 50.492 155.346 50.898 155.864 50.898ZM163.936 48.672V50.926H165.098V48.672H163.936ZM169.746 43.436V50.884H170.908V43.436H169.746ZM160.646 49.064C163.012 49.064 166.036 49.036 168.808 48.63L168.738 47.874C166.036 48.182 162.942 48.196 160.506 48.196L160.646 49.064ZM162.424 51.346V52.186H169.76V53.208H162.452V55.406H163.586V53.978H170.908V51.346H162.424ZM162.452 55.112V55.952H171.328V55.112H162.452ZM167.226 49.456V50.212H170.11V49.456H167.226ZM164.594 43.674C162.704 43.674 161.472 44.402 161.472 45.578C161.472 46.754 162.704 47.482 164.594 47.482C166.47 47.482 167.702 46.754 167.702 45.578C167.702 44.402 166.47 43.674 164.594 43.674ZM164.594 44.486C165.812 44.486 166.61 44.906 166.61 45.578C166.61 46.25 165.812 46.67 164.594 46.67C163.348 46.67 162.55 46.25 162.55 45.578C162.55 44.906 163.348 44.486 164.594 44.486ZM179.391 45.228V46.138H182.961V45.228H179.391ZM179.391 47.538V48.448H182.961V47.538H179.391ZM182.667 43.436V50.03H183.829V43.436H182.667ZM175.681 50.66V51.584H182.681V52.788H175.709V55.602H176.843V53.656H183.829V50.66H175.681ZM175.709 55V55.924H184.291V55H175.709ZM174.043 44.01V49.54H179.755V44.01H178.621V45.83H175.191V44.01H174.043ZM175.191 46.74H178.621V48.602H175.191V46.74ZM199.068 43.436V56.092H200.188V43.436H199.068ZM197.066 48.448V49.4H199.488V48.448H197.066ZM196.268 43.702V55.462H197.374V43.702H196.268ZM189.884 44.892V52.704H194.714V44.892H189.884ZM193.622 45.816V51.78H190.976V45.816H193.622ZM207.439 49.736V51.654H208.601V49.736H207.439ZM202.315 49.05V49.946H213.739V49.05H202.315ZM207.453 43.352V44.892H208.601V43.352H207.453ZM207.397 45.004V45.2C207.397 46.558 205.409 47.44 202.917 47.594L203.253 48.49C206.053 48.252 208.419 47.188 208.419 45.2V45.004H207.397ZM207.635 45.004V45.2C207.635 47.188 209.987 48.252 212.787 48.49L213.123 47.594C210.645 47.44 208.657 46.558 208.657 45.2V45.004H207.635ZM203.477 44.542V45.424H212.577V44.542H203.477ZM203.687 51.094V51.976H211.135V53.054H203.715V55.406H204.863V53.88H212.283V51.094H203.687ZM203.715 55.07V55.952H212.661V55.07H203.715Z" fill="#666666"/>
<path d="M65.116 51.15C65.83 51.15 66.404 50.562 66.404 49.806C66.404 49.036 65.83 48.462 65.116 48.462C64.374 48.462 63.842 49.036 63.842 49.806C63.842 50.562 64.374 51.15 65.116 51.15ZM73.4992 43.66C71.5252 43.66 70.0412 44.892 70.0412 46.628C70.0412 48.35 71.5252 49.582 73.4992 49.582C75.4732 49.582 76.9572 48.35 76.9572 46.628C76.9572 44.892 75.4732 43.66 73.4992 43.66ZM73.4992 45.172C74.4512 45.172 75.1512 45.704 75.1512 46.628C75.1512 47.552 74.4512 48.084 73.4992 48.084C72.5472 48.084 71.8332 47.552 71.8332 46.628C71.8332 45.704 72.5472 45.172 73.4992 45.172ZM78.7492 43.282V49.764H80.6252V43.282H78.7492ZM71.9732 50.296V51.738H78.7772V52.508H72.0012V55.42H73.8212V53.852H80.6252V50.296H71.9732ZM72.0012 54.664V56.106H80.9472V54.664H72.0012ZM85.6361 45.326V46.782C85.6361 48.91 84.5861 51.332 82.4441 52.34L83.4941 53.81C85.8741 52.69 87.1061 49.708 87.1061 46.782V45.326H85.6361ZM86.0281 45.326V46.782C86.0281 49.54 87.2321 52.382 89.6121 53.488L90.6341 52.018C88.5061 51.038 87.4981 48.742 87.4981 46.782V45.326H86.0281ZM82.9481 44.528V46.054H90.0601V44.528H82.9481ZM91.0121 43.282V56.246H92.8881V43.282H91.0121ZM92.4681 48.224V49.764H94.7641V48.224H92.4681ZM101.861 44.906V46.306H104.997V44.906H101.861ZM101.861 47.272V48.672H104.997V47.272H101.861ZM104.591 43.282V49.932H106.453V43.282H104.591ZM97.885 50.436V51.864H104.605V52.564H97.899V55.546H99.747V53.908H106.453V50.436H97.885ZM97.899 54.664V56.106H106.817V54.664H97.899ZM96.149 43.814V49.582H102.281V43.814H100.461V45.326H97.997V43.814H96.149ZM97.997 46.726H100.461V48.126H97.997V46.726ZM121.02 43.282V56.246H122.798V43.282H121.02ZM119.466 48.224V49.722H121.608V48.224H119.466ZM118.178 43.478V55.658H119.928V43.478H118.178ZM112.018 44.612V53.012H117.142V44.612H112.018ZM115.406 46.068V51.556H113.754V46.068H115.406ZM129.461 49.876V51.752H131.323V49.876H129.461ZM124.561 48.784V50.142H136.237V48.784H124.561ZM129.461 43.268V44.836H131.309V43.268H129.461ZM129.349 44.92V45.172C129.349 46.068 128.159 46.95 124.995 47.076L125.513 48.462C129.097 48.266 130.987 47.034 130.987 45.172V44.92H129.349ZM129.783 44.92V45.172C129.783 47.034 131.673 48.266 135.243 48.462L135.761 47.076C132.611 46.95 131.421 46.068 131.421 45.172V44.92H129.783ZM125.653 44.29V45.648H135.131V44.29H125.653ZM125.877 50.926V52.27H133.003V52.886H125.891V55.364H127.725V54.132H134.837V50.926H125.877ZM125.891 54.804V56.162H135.173V54.804H125.891Z" fill="#666666"/>
<defs>
<clipPath id="clip0_3_43">
<rect width="423" height="9" fill="white" transform="translate(96 320)"/>
</clipPath>
<clipPath id="clip1_3_43">
<rect width="30" height="183" fill="white" transform="translate(20 99)"/>
</clipPath>
</defs>
</svg>
