<svg xmlns="http://www.w3.org/2000/svg" viewBox="0 0 420 300"><title>Asset 10</title><g id="Layer_2" data-name="Layer 2"><g id="Layer_1-2" data-name="Layer 1"><path d="M45,0A45,45,0,0,0,0,45c.56,68.24,0,140.46,0,210a44.82,44.82,0,0,0,42.19,44.77l334.68.23A45,45,0,0,0,420,255V37.27A44.89,44.89,0,0,0,375.7,0Q210.44.08,45,0Zm-.7,22.27H377.11l-161,161a7.4,7.4,0,0,1-10.54,0L44.3,22.27ZM397.5,34.92V253.13c0,13-4.68,20.34-14.06,23L270,162.43,397.5,34.93Zm-375,.94L147.89,161.25,33.28,275.86c-7.85-2.65-10.58-9-10.78-17.58V35.86ZM166.41,177l39.14,39.37a7.41,7.41,0,0,0,10.55,0l38-38L353,277.26H66.1L166.42,177Z"/></g></g></svg>