<svg xmlns="http://www.w3.org/2000/svg" viewBox="0 0 318.4 432.9"><defs><style>.cls-1{fill:#156037;}</style></defs><title>Asset 1</title><g id="Layer_2" data-name="Layer 2"><g id="Layer_1-2" data-name="Layer 1"><path class="cls-1" d="M159.3,0a93.8,93.8,0,1,0,93.8,93.8A93.81,93.81,0,0,0,159.3,0Zm84.2,185.8a124.46,124.46,0,0,1-168.5.1C28.4,216.8,0,271,0,329.3c0,.8.1,1.7.1,2.5H318.3c0-.8.1-1.7.1-2.5.1-58.4-28.3-112.6-74.9-143.5Z"/><path class="cls-1" d="M79.82,343.5H103l14.16,38.64c1.8,5.16,3.24,10.8,4.92,16.2h.6c1.8-5.4,3.24-11,4.92-16.2l13.68-38.64h23.28v89.4H145V402.3c0-8.88,1.68-22.2,2.88-31h-.6l-7.44,21.36-12,32.64H116.06L103.94,392.7l-7.2-21.36h-.48c1.08,8.76,2.76,22.08,2.76,31v30.6H79.82Z"/><path class="cls-1" d="M200.54,401.34,173.66,343.5h22.8l7.44,19.92c2.4,6.72,4.68,13,7.2,19.92h.48c2.52-7,4.92-13.2,7.44-19.92l7.44-19.92H248.9l-27,57.84V432.9H200.54Z"/></g></g></svg>