<?xml version="1.0" encoding="utf-8"?>
<!-- Generator: Adobe Illustrator 22.1.0, SVG Export Plug-In . SVG Version: 6.00 Build 0)  -->
<svg version="1.1" id="Layer_1" xmlns="http://www.w3.org/2000/svg" xmlns:xlink="http://www.w3.org/1999/xlink" x="0px" y="0px"
	 viewBox="0 0 5000 4014" style="enable-background:new 0 0 5000 4014;" xml:space="preserve">
<style type="text/css">
	.st0{fill:#FF0000;}
	.st1{fill:#FFFFFF;}
</style>
<g>
	<path class="st0" d="M2544.9,3350c-221.8,0-443.7,0-665.5,0c-3.6-0.4-7.2-1-10.9-1.1c-230.1-3.6-460.3-6.9-690.4-11
		c-65.1-1.2-129.7-4.8-193.2-23.7c-128-38.1-222.3-114.4-279.2-236c-30.5-65.1-50.4-133.5-65.1-203.6
		c-22.9-109.1-34.9-219.6-41.3-330.7c-5.9-101.4-10.2-202.9-12.2-304.4c-4.3-222.1-4-444.3,5.2-666.3c4.3-104.2,12-208,28.2-311.1
		c18.1-115.3,51.9-225.3,104.8-329.7c52.3-103.3,131.7-171.8,243.8-203c83.7-23.2,169.1-36.7,255.4-42.6
		c104.6-7.1,209.5-11.6,314.3-14.1c158.3-3.8,316.6-4.8,475-7.1c22-0.3,44-1.1,66-1.7c187.1,0,374.2,0,561.3,0
		c9.3,0.4,18.6,1.2,27.9,1.3c312,2.5,623.9,5.6,935.7,18.4c91.5,3.8,182.6,12.2,272.7,28.6c84.7,15.4,167.3,38,244.7,76.8
		c90.5,45.3,161.3,110.9,207.4,201.8c33.9,66.9,52,138.5,63.4,212c13.1,84.3,18.1,169.4,19.1,254.6c1.4,118.6,1.1,237.2,1.5,355.7
		c0.7,181.7,2.3,363.4,1.8,545.1c-0.4,145-4.4,289.9-24.3,433.8c-9.2,66.6-23.4,132.1-47.2,195.2c-31.7,84.3-80.7,158.7-133.6,230.6
		c-22.2,30.2-51.9,51.6-86.6,66.1c-32.5,13.6-66.6,21.7-101.2,27.6c-89.8,15.3-180.5,20.2-271.3,23.4
		c-107.1,3.8-214.4,6.8-321.6,7.8c-273.6,2.5-547.1,3.7-820.7,5.5C2587.6,3348.7,2566.2,3349.5,2544.9,3350z M3126.3,2000.6
		c-311.1-205.7-619.5-411.6-933-608.4c1.2,412,2.4,823.1,3.6,1237.1C2515,2429.1,2824.2,2221.4,3126.3,2000.6z"/>
	<path class="st1" d="M3126.3,2000.6c-302.1,220.8-611.3,428.5-929.4,628.8c-1.2-414.1-2.4-825.1-3.6-1237.1
		C2506.8,1589.1,2815.2,1795,3126.3,2000.6z"/>
</g>
</svg>
