<svg xmlns="http://www.w3.org/2000/svg" viewBox="0 0 190.15 200.88"><defs><style>.cls-1{stroke:#000;stroke-width:0.88px;opacity:0.81;isolation:isolate;}</style></defs><title>Asset 5</title><g id="Layer_2" data-name="Layer 2"><g id="Layer_1-2" data-name="Layer 1"><path class="cls-1" d="M96,.44C69.62.44,30.79,41.85,30.79,41.85V68.68C14,69.94.81,83.2.46,99.6c0,.22,0,.44,0,.67,0,.52,0,1,0,1.56,0,.27,0,.55.06.82s0,.56.07.84c0,.09,0,.18,0,.28,0,.37.08.75.14,1.11a1.85,1.85,0,0,0,0,.23c.08.52.18,1,.29,1.56s.22,1,.34,1.43c0,.09,0,.18.06.26.12.46.26.91.41,1.36s.22.69.34,1l.33.88c.14.34.28.67.43,1s.39.88.6,1.3l.15.3c.2.4.42.79.64,1.17s.48.83.73,1.23c.06.1.11.2.18.3s.33.5.5.74.25.39.39.58.24.32.36.48l.7.92c.24.3.49.61.75.91l.74.82.34.37c.18.18.37.34.54.52s.33.35.51.52l.61.56.58.52,0,0,1.12.91c.38.3.77.59,1.16.87s.83.58,1.26.86.66.43,1,.63l.33.21.66.35.65.35.51.26c.34.18.67.34,1,.51l.08,0c.46.21.94.41,1.41.6s.87.36,1.31.52l.18.05,1,.34c.49.15,1,.3,1.47.43l1.21.3.68.14.29.06.87.15,1.2.18.77.1,1.18.11c.87.07,1.75.11,2.65.11h3.9v29.84a64.67,64.67,0,0,0,47.43,35.35,5.91,5.91,0,0,0,5.3,3.28h11.28a6.16,6.16,0,0,0,6.21-6.11,5.93,5.93,0,0,0-6-5.8H91a6,6,0,0,0-4.59,2.13A53,53,0,0,1,80.1,189a55.74,55.74,0,0,1-7-2.9,61.2,61.2,0,0,1-6.63-3.78,66.39,66.39,0,0,1-6.16-4.58,70.34,70.34,0,0,1-5.67-5.25c-1.79-1.85-3.47-3.81-5.07-5.83s-3.09-4.12-4.47-6.29V45.28C46.46,43.12,48,41,49.55,39a76.3,76.3,0,0,1,5.07-5.84,70.34,70.34,0,0,1,5.67-5.25,66.39,66.39,0,0,1,6.16-4.58,61.2,61.2,0,0,1,6.63-3.78,57.27,57.27,0,0,1,7-2.9,52.65,52.65,0,0,1,7.39-1.89c1.25-.22,2.5-.39,3.78-.52S93.85,14,95.16,14c.5,0,1,0,1.5,0a44.1,44.1,0,0,1,4.46.22,46.06,46.06,0,0,1,5.83,1,49.55,49.55,0,0,1,5.66,1.68,55.52,55.52,0,0,1,5.46,2.32q2.67,1.3,5.22,2.86c1.69,1,3.32,2.17,4.92,3.36s3.14,2.44,4.62,3.76,2.89,2.7,4.25,4.11c1.71,1.89,3.32,3.83,4.85,5.84s3,4.06,4.36,6.17v86.1h.27a1.35,1.35,0,0,1,.54.59h10.83a7.94,7.94,0,0,1,2.7-.53c.51,0,1-.1,1.52-.17s.9-.12,1.34-.2l.15,0,.17,0c.44-.08.87-.16,1.3-.26,1-.22,1.93-.49,2.87-.8.46-.15.93-.33,1.39-.5s.91-.36,1.36-.56l1.32-.61c.44-.22.88-.44,1.3-.67.85-.47,1.68-1,2.48-1.53.38-.26.76-.52,1.13-.8l0,0a30.57,30.57,0,0,0,3.29-2.82l.73-.75.28-.28.17-.18.78-.9.22-.26c.24-.28.46-.58.69-.87s.48-.63.71-1c0-.07.1-.14.14-.21l.28-.4.52-.8c.11-.16.2-.33.3-.49l.45-.76c.11-.19.21-.39.31-.58l.38-.7.05-.12c.18-.34.34-.67.51-1a1.22,1.22,0,0,1,.07-.17c.11-.25.23-.51.33-.76s.17-.4.25-.6l0-.09c.15-.37.28-.74.41-1.11,0-.06.06-.11.08-.17.1-.31.2-.62.29-.93.16-.5.3-1,.43-1.51s.25-1,.36-1.54.18-1,.26-1.44a.69.69,0,0,1,0-.13l0-.24c.07-.44.12-.89.17-1.34,0-.05,0-.11,0-.17,0-.47.09-1,.11-1.45v-.09c0-.51,0-1,0-1.54,0-.18,0-.35,0-.53a31.66,31.66,0,0,0-29.11-31V41.37C145.64,16.46,122.27.44,96,.44Z"/></g></g></svg>