<svg xmlns="http://www.w3.org/2000/svg" xmlns:xlink="http://www.w3.org/1999/xlink" viewBox="0 0 308.46 401.52"><defs><style>.cls-1{stroke:#000;stroke-width:0.88px;opacity:0.81;isolation:isolate;}.cls-2{fill:#efe2d3;}.cls-3,.cls-5{fill:none;stroke:#1d1d1b;}.cls-3,.cls-5,.cls-9{stroke-miterlimit:10;}.cls-3{stroke-width:2.33px;}.cls-4{fill:#1d1d1b;}.cls-5{stroke-width:1.17px;}.cls-6{fill:#333;}.cls-7{fill:#fff;}.cls-8{fill:#b2b2b2;}.cls-9{stroke:#686867;stroke-width:0.71px;fill:url(#linear-gradient);}.cls-10{fill:#686867;}</style><linearGradient id="linear-gradient" x1="-386.43" y1="2047.35" x2="-381.52" y2="1977.83" gradientTransform="matrix(1, 0, 0, -1, 539.04, 2358.74)" gradientUnits="userSpaceOnUse"><stop offset="0" stop-color="#e7e7e7"/><stop offset="1" stop-color="#c6c6c6"/></linearGradient></defs><title>Asset 1</title><g id="Layer_2" data-name="Layer 2"><g id="Layer_1-2" data-name="Layer 1"><g id="Layer_2-2" data-name="Layer 2"><g id="Ebene_1" data-name="Ebene 1"><path class="cls-1" d="M220.87,227.48c-1.25,12.89-30.5,23.23-66.43,23.23s-65.3-10.32-66.36-23.23C36.23,236.45.44,257.9.44,351H308C308,258,272.5,236.61,220.87,227.48Z"/><path class="cls-2" d="M154.29,249.12c35.51,0,64.41-10.21,65.64-23-9.55-1.66-24.9-2.9-35.42-3.73V210.19c18.58-1.81,57.37-52.32,57.16-101a108.32,108.32,0,0,0-4.39-30.51c-11.53-38.79-44.42-66.75-83.19-66.75C110.38,11.78,74,47.5,67.53,94.12a60.68,60.68,0,0,0-1,15c5.84,55.57,37.74,95.62,55.93,100.24v13.17c-9.91.81-24.66,2-33.7,3.61C89.77,238.87,118.73,249.12,154.29,249.12Z"/><path class="cls-3" d="M59.23,107.07c0-58.43,42.68-105.91,95.34-105.91s95.31,47.48,95.31,105.91"/><rect class="cls-4" x="51.22" y="84.36" width="12.78" height="51.13" rx="5.04"/><rect class="cls-4" x="242.94" y="84.36" width="12.78" height="51.13" rx="5.04"/><path class="cls-5" d="M247.8,125.26c0,24.3-36.52,44-81.42,44"/><rect class="cls-4" x="144.34" y="164.71" width="38.34" height="12.78" rx="5.19"/><path class="cls-4" d="M130.28,111.47c0,6.15-4.27,11.16-9.53,11.16s-9.53-4.92-9.53-11.16,4.27-11.17,9.53-11.17S130.28,105.3,130.28,111.47Z"/><path class="cls-4" d="M200.53,111.47c0,6.15-4.28,11.16-9.54,11.16s-9.53-4.92-9.53-11.16,4.27-11.17,9.53-11.17S200.53,105.3,200.53,111.47Z"/><path class="cls-6" d="M115.12,44.68a11.45,11.45,0,0,1-.58-3.53,11.45,11.45,0,0,0,.58,3.53v0c3.22,9.93,38.24,27.2,63.11,33.23C185,79.55,161.8,64.12,161.8,64.12s56.2,13.7,76.69,13.79c-11.67-39.26-45-67.56-84.2-67.56C110,10.35,73.22,46.5,66.66,93.69,92.74,92.63,113.68,71.37,115.12,44.68Z"/><path class="cls-7" d="M120,102.62h.51l.57.11a2.27,2.27,0,0,1,.71.19,7.25,7.25,0,0,1,1.82.87,8.21,8.21,0,0,1,1.63,1.54,3.9,3.9,0,0,1,.58,1,3,3,0,0,1,.44,1,4.53,4.53,0,0,1,.24,1.93,3.77,3.77,0,0,1-.28,1.33,4.5,4.5,0,0,1-.16.48v-.51a4.82,4.82,0,0,0-.13-1.26,6.15,6.15,0,0,0-.34-.84c-.1-.29-.24-.55-.35-.86a2.75,2.75,0,0,0-.42-.86,4.62,4.62,0,0,0-.57-.82,6.83,6.83,0,0,0-1.35-1.44,11.86,11.86,0,0,0-1.39-1.06,6.15,6.15,0,0,0-.64-.37l-.51-.27Z"/><path class="cls-7" d="M191.27,102.62h1a2.2,2.2,0,0,1,.71.19,7,7,0,0,1,1.83.87,7.73,7.73,0,0,1,1.64,1.54,3.9,3.9,0,0,1,.58,1,3,3,0,0,1,.44,1,4.87,4.87,0,0,1,.24,1.93,3.76,3.76,0,0,1-.27,1.33,3.9,3.9,0,0,1-.17.48v-.51a4.82,4.82,0,0,0-.13-1.26,5.8,5.8,0,0,0-.16-.81c-.09-.29-.26-.54-.35-.85a2.75,2.75,0,0,0-.42-.86,5.16,5.16,0,0,0-.56-.82,7.75,7.75,0,0,0-1.35-1.45,15.92,15.92,0,0,0-1.39-1.06c-.22-.16-.46-.23-.64-.36l-.51-.27Z"/><path class="cls-8" d="M280.05,389.5c0,2-6.27,10.75-14,10.75H40.65c-7.73,0-14-8.78-14-10.75L16.14,362.63c0-2-.29-8,7.41-8h259.6c7.72,0,8.38,3.73,8.47,5.38S280.05,389.5,280.05,389.5Z"/><rect class="cls-9" x="28.39" y="245.96" width="250.15" height="155.2" rx="12.14"/><path class="cls-10" d="M165,309.12a11.47,11.47,0,1,1-10.85-7.47h.08A11.28,11.28,0,0,1,165,309.12Z"/></g></g></g></g></svg>