<svg xmlns="http://www.w3.org/2000/svg" viewBox="0 0 246.23 200"><defs><style>.cls-1{fill:#333;}</style></defs><title>Asset 6</title><g id="Layer_2" data-name="Layer 2"><g id="Layer_1-2" data-name="Layer 1"><path class="cls-1" d="M77.52,0A52.78,52.78,0,1,0,111,93.56l19.39,7.12L121.3,82.29A52.79,52.79,0,0,0,77.51,0Zm74.64,107.85c-15.6,0-28.27,11.79-28.27,26.31s12.67,26.29,28.27,26.29,28.24-11.76,28.24-26.29S167.76,107.85,152.16,107.85ZM24.22,129.92c-9.76,0-17.69,7.37-17.69,16.46s7.93,16.44,17.69,16.44,17.69-7.34,17.69-16.44S34,129.92,24.22,129.92Zm56.87,0c-9.77,0-17.69,7.37-17.69,16.46s7.92,16.44,17.69,16.44,17.66-7.34,17.66-16.44S90.85,129.92,81.09,129.92Zm142.14,0c-9.77,0-17.69,7.37-17.69,16.46s7.92,16.44,17.69,16.44,17.66-7.34,17.66-16.44S233,129.92,223.23,129.92Zm-90.14,32.2a19.66,19.66,0,0,0-19.45,19.94V200h75.77V181.6a19.48,19.48,0,0,0-19.48-19.48ZM0,177.27v11.37H49.25V177.27a11.37,11.37,0,0,0-11.37-11.36H11.36A11.37,11.37,0,0,0,0,177.27Zm56.82,0v11.37h49.25V177.27A11.37,11.37,0,0,0,94.7,165.91H68.19A11.37,11.37,0,0,0,56.82,177.27Zm140.16,0v11.37h49.25V177.27a11.37,11.37,0,0,0-11.37-11.36H208.35A11.37,11.37,0,0,0,197,177.27Z"/></g></g></svg>