<svg xmlns="http://www.w3.org/2000/svg" viewBox="0 0 340.58 305"><defs><style>.cls-1{fill-opacity:0.5;}.cls-1,.cls-2{fill-rule:evenodd;}.cls-2{fill:#fff;stroke:#000;stroke-linejoin:round;stroke-width:10px;}</style></defs><title>Asset 9</title><g id="Layer_2" data-name="Layer 2"><g id="Layer_1-2" data-name="Layer 1"><path class="cls-1" d="M59.54,13.28l232.22,1.66c14.35.1,38.63,3.77,43.8,24,6,26.56,8,146.07-1.65,164.45-7.09,14.83-13.67,19.78-20.66,24-20.72,10-117.35,8.26-117.35,8.26L72.77,305l79.33-70.25h-100c-14,0-26.86-8.83-31.41-28.1-7.9-35-9.44-133.15-1.65-156.19,7.39-21,19.8-37.34,40.5-37.19Z"/><path class="cls-2" d="M50.61,5,282.83,6.66c14.34.1,38.63,3.77,43.8,24,6,26.56,8,146.07-1.65,164.45-7.09,14.84-13.67,19.78-20.66,24C283.6,229,187,227.3,187,227.3L63.84,296.72l79.33-70.24h-100c-14,0-26.87-8.83-31.41-28.1-7.9-35-9.44-133.15-1.65-156.19C17.5,21.14,29.91,4.85,50.61,5Z"/></g></g></svg>