<svg xmlns="http://www.w3.org/2000/svg" viewBox="0 0 209.6 201.5"><defs><style>.cls-1{fill:#fff;stroke-linejoin:round;stroke-width:1.5px;}.cls-1,.cls-7{stroke:#000;}.cls-2{fill:#ffd42a;}.cls-2,.cls-4,.cls-5,.cls-6{fill-rule:evenodd;}.cls-3,.cls-4{fill:#333;}.cls-5{fill:#fd5;}.cls-6{fill:#fc0;}.cls-7{fill:none;stroke-width:3px;}</style></defs><title>Asset 8</title><g id="Layer_2" data-name="Layer 2"><g id="Layer_1-2" data-name="Layer 1"><path class="cls-1" d="M8,1.36A7.71,7.71,0,0,0,.75,8.74V193.37c0,4.09,3.62,7.38,8.11,7.38H154.75c4.49,0,8.11-3.29,8.11-7.38V39.22l-38-37.86H8.85a7.3,7.3,0,0,0-.81,0Z"/><path class="cls-1" d="M125.57.75V30.54a8.11,8.11,0,0,0,8.11,8.1h29.84Z"/><path class="cls-2" d="M115.64,178.5,132,167.77l.13,0-4.87-5.72v.09L114,176.65l1.62,1.85Z"/><path class="cls-3" d="M60.53,181.88a28.09,28.09,0,0,0,6.16-1.61l2.45-.75q8.17-2.7,16.35-5.42c1.26-.33,2.45-.85,3.69-1.22.76-.23,2-.69,2.56.22a2.21,2.21,0,0,1,.18.62,20.19,20.19,0,0,1-1.44,4.65c0,.37-.48,1.17-.32,1.55s.75,0,.76,0l1-.31c3.53-1.16,7.12-2.17,10.59-3.5.45-.16,1.55-1,2.09-.37.35.38.15.91,0,1.33-.12.64-.3,1.48.2,2a5,5,0,0,0,.43.35,21.83,21.83,0,0,0,5.55,1.79,1.05,1.05,0,0,1,.9.63L107.55,184c.21.15-.42-.22-.5-.21-1.91-.6-3.92-.92-5.66-1.94a4.69,4.69,0,0,1-.54-.46,2.82,2.82,0,0,1-.37-2.35c0-.14.08-.28.13-.42s.14-.31.14-.31c-.36-.24-1.5.52-1.69.49-3.54,1.25-7.14,2.32-10.7,3.53a2.71,2.71,0,0,1-1.86.13c-.85-.42-.26-1.55-.11-2.17a32.76,32.76,0,0,0,1.51-4.41c0-.12,0-.25,0-.36-.33-.64-1.8-.07-2.11,0-1.19.34-2.35.8-3.55,1.12Q74,179.3,65.86,182.06l-2.51.8a27.58,27.58,0,0,1-6.54,1.73l3.72-2.71Z"/><path class="cls-4" d="M117.27,180.35l-1.63-1.85-8.19,5.4-.06.13,9.88-3.68Z"/><path class="cls-3" d="M136.54,173.25l-4.77-5.42,73.06-64.21L209.6,109Z"/><path class="cls-3" d="M131.77,167.82,127,162.4l73.06-64.21,4.77,5.42Z"/><path class="cls-3" d="M127,162.4,122.24,157,195.3,92.77l4.76,5.42Z"/><path class="cls-4" d="M115.65,178.5,114,176.65l-6.57,7.25Z"/><path class="cls-4" d="M114,176.63l-1.54-1.75-5,9,6.57-7.26Z"/><path class="cls-5" d="M114,176.65l13.19-14.46v-.09l-4.62-5.35-10.11,18.14,1.54,1.76Z"/><path class="cls-6" d="M117.27,180.34l19.43-7.16-4.62-5.36-.13,0-16.3,10.72,1.62,1.85Z"/><path class="cls-7" d="M18.58,39.45h90.78"/><path id="a" class="cls-7" d="M18.58,55.66h123.2"/><path id="a-2" data-name="a" class="cls-7" d="M18.58,71.87h123.2"/><path id="a-3" data-name="a" class="cls-7" d="M18.58,88.09h123.2"/><path id="a-4" data-name="a" class="cls-7" d="M18.58,104.3h123.2"/><path id="a-5" data-name="a" class="cls-7" d="M18.58,120.51h123.2"/><path id="a-6" data-name="a" class="cls-7" d="M18.58,136.72h123.2"/></g></g></svg>