<svg xmlns="http://www.w3.org/2000/svg" viewBox="0 0 222.27 300"><title>Asset 7</title><g id="Layer_2" data-name="Layer 2"><g id="Layer_1-2" data-name="Layer 1"><path d="M64.64.27S-.84,1.13,0,60.45s12.76,111.77,32.32,141,69.72,105.75,126.71,98c0,0,28.06-6,49.32-19.77l-68.88-54.17s-20.41,12.9-33.17-4.3-52.72-97.14-52.72-97.14-11.06-25.79,13.6-37Z"/><path d="M72.45.27s5.1-1.71,14.45,3.44,9.36,9.45,9.36,9.45l.85,59.33a71.51,71.51,0,0,1-6,6.87C87.76,82.8,76.7,88,75,84.52S72.45.27,72.45.27Z"/><path d="M145.2,219.17l18.94-10s4.25-.86,11.05,3.44,42.52,32.68,42.52,32.68,5.95,5.15,4.25,11.17-6,18.92-6,18.92Z"/></g></g></svg>