<svg xmlns="http://www.w3.org/2000/svg" viewBox="0 0 215.86 201.5"><defs><style>.cls-1{fill:#fff;stroke-width:1.5px;}.cls-1,.cls-2,.cls-3,.cls-4{stroke:#000;}.cls-1,.cls-3{stroke-linejoin:round;}.cls-2{fill:none;stroke-width:3px;}.cls-4{stroke-width:0.88px;opacity:0.81;isolation:isolate;}</style></defs><title>Asset 2</title><g id="Layer_2" data-name="Layer 2"><g id="Layer_1-2" data-name="Layer 1"><path class="cls-1" d="M8.07.76C4,1.14.75,4.32.75,8.17V193.34c0,4.11,3.63,7.41,8.13,7.41H155.21c4.51,0,8.13-3.3,8.13-7.41V38.73L125.23.76H8.88c-.28,0-.54,0-.81,0Z"/><path class="cls-1" d="M126,1.78V31.65a8.13,8.13,0,0,0,8.13,8.13H164Z"/><path class="cls-2" d="M18.64,39h91.05"/><path id="a" class="cls-2" d="M18.64,55.23H142.21"/><path id="a-2" data-name="a" class="cls-2" d="M18.64,71.49H142.21"/><path id="a-3" data-name="a" class="cls-2" d="M18.64,87.75H142.21"/><path id="a-4" data-name="a" class="cls-2" d="M18.64,104H142.21"/><path id="a-5" data-name="a" class="cls-2" d="M18.64,120.27H142.21"/><path id="a-6" data-name="a" class="cls-2" d="M18.64,136.53H142.21"/><path class="cls-2" d="M137.63,170.37a20.77,20.77,0,1,1-20.77-20.78A20.77,20.77,0,0,1,137.63,170.37Z"/><path class="cls-3" d="M105.4,167.51c.44.8,0,0,.58,1.1.15.29.33.58.47.88.57,1.27,1,2.64,1.42,4,.35.75.76,2.8,1.4,3.36a.62.62,0,0,0,.57.12c.3-.09,1.06-.53.76-.52a4.79,4.79,0,0,0-1.46.54,122.37,122.37,0,0,1,9.62-7.7c2.18-1.5,3.42-2.19,5.67-3.53,5.47-3.08,3.15-1.84,6.92-3.8l-2.25,1.8c-2.09,1.06-1.28.91-2.24,1.06-2.21,1.3-3.61,2.08-5.74,3.54a84.84,84.84,0,0,0-9.12,7.47c-1.32.89-2.6,1.84-4,2.67a2.08,2.08,0,0,1-1,.35c-.63,0-.91-.89-1.05-1.27-.34-.84-.51-1.74-.85-2.58a17.55,17.55,0,0,0-2.77-5.68l3-1.77Z"/><path class="cls-4" d="M156.58,176.34c-4.46,4.75-15.83,1.3-25.4-7.69s-13.7-20.14-9.24-24.88,15.83-1.3,25.4,7.69S161,171.6,156.58,176.34Z"/><path class="cls-4" d="M159.15,173.6c-4.46,4.75-15.83,1.3-25.4-7.69s-13.7-20.14-9.24-24.88,15.83-1.3,25.4,7.69S163.61,168.86,159.15,173.6Z"/><path class="cls-4" d="M212.44,82.24c-6.59-6.2-22-.53-34.38,12.65-7,7.43-11.54,15.66-13,22.54l-29.41,31.29a3.54,3.54,0,0,0-.42.35c-2,2.17-.26,7.16,3.94,11.11s9.27,5.39,11.3,3.22a1,1,0,0,0,.14-.15l29.72-31.61c6.75-1.9,14.66-6.92,21.6-14.31,12.39-13.18,17.1-28.9,10.51-35.09Z"/></g></g></svg>