<svg xmlns="http://www.w3.org/2000/svg" xmlns:xlink="http://www.w3.org/1999/xlink" viewBox="0 0 41.5 46.5"><defs><style>.cls-1{fill:#156037;}.cls-2{stroke:#595a5c;stroke-linecap:round;stroke-linejoin:round;stroke-width:0.96px;fill:url(#linear-gradient);}.cls-3{fill:url(#linear-gradient-2);}.cls-4{fill:url(#linear-gradient-3);}.cls-5{fill:url(#linear-gradient-4);}.cls-6{fill:url(#linear-gradient-5);}.cls-7{fill:url(#linear-gradient-6);}</style><linearGradient id="linear-gradient" x1="-284.57" y1="-542.12" x2="-284.57" y2="-612.15" gradientTransform="matrix(0.87, -0.41, -0.41, -0.87, 46.15, -570.71)" gradientUnits="userSpaceOnUse"><stop offset="0" stop-color="#f8f8f9"/><stop offset="1" stop-color="#d8d9db"/></linearGradient><linearGradient id="linear-gradient-2" x1="-903.83" y1="-9455.35" x2="-902.83" y2="-9455.35" gradientTransform="matrix(9.08, 0, 0, -8.89, 8205.51, -84068.36)" gradientUnits="userSpaceOnUse"><stop offset="0" stop-color="#404040"/><stop offset="1"/></linearGradient><linearGradient id="linear-gradient-3" x1="-892.72" y1="-9458.41" x2="-891.72" y2="-9458.41" gradientTransform="matrix(8.08, 0, 0, -8.4, 7222.42, -79482.1)" xlink:href="#linear-gradient-2"/><linearGradient id="linear-gradient-4" x1="-582.17" y1="-9459.55" x2="-581.17" y2="-9459.55" gradientTransform="matrix(1.98, 0, 0, -8.24, 1173.7, -77898.93)" xlink:href="#linear-gradient-2"/><linearGradient id="linear-gradient-5" x1="-900.73" y1="-9456.41" x2="-899.73" y2="-9456.41" gradientTransform="matrix(8.78, 0, 0, -8.72, 7926.67, -82416.69)" xlink:href="#linear-gradient-2"/><linearGradient id="linear-gradient-6" x1="-916.02" y1="-9447.36" x2="-915.02" y2="-9447.36" gradientTransform="matrix(10.5, 0, 0, -10.48, 9649.11, -99042.12)" xlink:href="#linear-gradient-2"/></defs><title>Asset 2</title><g id="Layer_2" data-name="Layer 2"><g id="Layer_1-2" data-name="Layer 1"><circle class="cls-1" cx="20.03" cy="17.34" r="4.89"/><polygon class="cls-2" points="33.09 45.22 34.81 44.4 29.74 33.55 36.82 33.48 20.03 17.34 21.67 40.57 26.27 35.18 31.35 46.02 33.09 45.22"/><path class="cls-3" d="M7.29,2.17c-.19.43-.36.86-.54,1.29a4.9,4.9,0,0,0-2.35.13c-2,.64-2.91,2.27-2.26,3.9a3,3,0,0,0,4,1.7A4.67,4.67,0,0,0,8.08,8c.34.3.67.59,1,.9a5.8,5.8,0,0,1-2.63,1.71c-2.61.82-5.06,0-6.1-2.35S.64,3.31,3.84,2.3a6,6,0,0,1,3.45-.13Z"/><path class="cls-4" d="M9.06,1.16C9.71,1,10.37.9,11,.79l1.17,6.76A46.71,46.71,0,0,1,17.05,7l.09,1.35a46.3,46.3,0,0,0-6.39.88q-.84-4-1.69-8Z"/><path class="cls-5" d="M20.25,8.2c-.56,0-1.12,0-1.68,0L18.27,0c.66,0,1.32,0,2,0q0,4.11,0,8.2Z"/><path class="cls-6" d="M30.89,1.65c-.35.31-.7.62-1,.94a4.91,4.91,0,0,0-2.17-.89c-2.09-.3-3.56.79-3.68,2.54A3,3,0,0,0,26.86,7.5a4.67,4.67,0,0,0,2.26-.28c.18.41.35.82.52,1.24a5.79,5.79,0,0,1-3.09.42c-2.7-.38-4.49-2.21-4.44-4.74S24.45-.17,27.74.28a6,6,0,0,1,3.15,1.37Z"/><path class="cls-7" d="M36.68,6.19A49.77,49.77,0,0,1,38.51,12c-.6-.26-1.21-.51-1.82-.74-.42-1.46-.92-2.92-1.49-4.37-.68.32-1.34.65-2,1-.18.67-.37,1.35-.56,2-.55-.15-1.1-.3-1.65-.43l1.92-8c.65.16,1.3.33,1.94.51-.35,1.24-.7,2.48-1,3.72l.06,0a48.57,48.57,0,0,1,5.34-2.32c.77.29,1.53.59,2.28.91a47.64,47.64,0,0,0-4.82,1.85Z"/></g></g></svg>