<svg xmlns="http://www.w3.org/2000/svg" viewBox="0 0 247.49 378.82"><defs><style>.cls-1{fill:#fff7ef;}.cls-2,.cls-6{fill:#156037;}.cls-3{fill:#ffdadc;}.cls-4{fill:#ffd2d7;}.cls-5{fill:#ffd3cd;}.cls-6{font-size:48px;font-family:YANGJIN;}</style></defs><title>Asset 1</title><g id="Layer_2" data-name="Layer 2"><g id="レイヤー_1" data-name="レイヤー 1"><path class="cls-1" d="M171.73,315.34a9.23,9.23,0,0,1,5.48-1.33c5.64,0,11.46,1.3,15.92,4.75s7.28,9.3,6.19,14.83-6,9.87-11.43,11.26-11.36.14-16.37-2.45c-5.45-2.83-10.27-7.66-11.23-13.72"/><path class="cls-2" d="M173.08,317.65c2.77-1.74,7.13-1,10.18-.4a18.77,18.77,0,0,1,8.82,4.27c4.74,4.35,6.25,11.56,1.46,16.47s-11.89,4.9-17.84,2.55a23.53,23.53,0,0,1-8.23-5.34c-2.33-2.41-3.1-5.17-4.54-8.06s-5.46-1.21-5.71,1.54c-.61,6.75,6.21,13.07,11.5,16.12,6.43,3.7,14.78,5.35,21.88,2.62,6.22-2.4,11.21-7.81,11.88-14.62s-3.37-13.48-9-17.16a27.39,27.39,0,0,0-11.33-4c-3.9-.53-8.31-.81-11.78,1.36-2.9,1.81-.23,6.43,2.7,4.61Z"/><path class="cls-1" d="M149,95.14c-35.35-6.52-74,2.5-101.22,26.12-24.16,20.94-41.45,53-43.91,84.11C-.26,258.23,43.09,283,91.83,288.48c51.27,5.75,134.45,1.67,150-58.53,4-15.37,1.72-31.63-2.6-46.92-5.86-20.78-15.68-40.85-30.9-56.74C192.32,109.56,171.33,99.26,149,95.14Z"/><path class="cls-2" d="M68,205.85c.75,5.21,6.19,8.81,11.27,8.22,5.67-.66,9.82-5.58,10.54-11,.21-1.56-1.37-2.94-2.76-3.12a3.23,3.23,0,0,0-3.49,2.27c-.89,2.19-2.2,4.59-4.72,5.16a3.85,3.85,0,0,1-4.75-3.17c-.71-4-6.66-2.27-6.09,1.68Z"/><path class="cls-2" d="M154.76,201.21c-1.2,5.18,1.37,10.9,6.58,12.66,4.5,1.52,12.17-1,12.92-6.32.4-2.78-2.72-5.29-5-2.94-1.62,1.64-2.77,3.8-5.52,3.29a4.63,4.63,0,0,1-3.52-5.19c.64-3.5-4.58-5.05-5.41-1.5Z"/><path class="cls-2" d="M149.69,92.78a125.21,125.21,0,0,0-77.45,8.75c-24.31,11.16-43.76,30.92-56.56,54.24C3.73,177.56-3.56,204.15,1.77,228.94,6.08,249,19.53,265,36.92,275.27c18.29,10.8,39.4,15.41,60.34,17.38a273.24,273.24,0,0,0,57.68-.34c19.21-2.29,38.65-6.9,55.5-16.73,16.25-9.48,28.79-24,34.2-42.2,4.33-14.55,3.26-29.95-.15-44.57A155.66,155.66,0,0,0,229.4,149c-13.24-24-34.28-43.1-60.36-52.17a100.58,100.58,0,0,0-19.2-4.61c-3.72-.53-5.49,4.89-1.61,5.81,25.36,6,48.35,18.21,64.59,39a128.61,128.61,0,0,1,18.78,34.26c5,13.38,8.76,27.7,8.68,42.06a63.58,63.58,0,0,1-24.56,50c-14.06,11-31.74,16.71-49.09,19.93-18.26,3.39-37,4-55.54,3.11C92,285.5,72.81,283,54.88,276c-17.17-6.72-33-18.12-41.34-34.95-9.94-20-7-44.06.42-64.4,8.57-23.57,24.57-45.58,45.29-59.88s45.4-20.43,70.5-20.71a109.67,109.67,0,0,1,18.63,1.43C151.44,98,152.82,93.42,149.69,92.78Z"/><path class="cls-3" d="M192,206.68l0,0S192,206.64,192,206.68Z"/><path class="cls-4" d="M219.82,223.53c-3.51-8.56-14.07-13.66-24-12.42a19,19,0,0,0-7.13.71,16.69,16.69,0,0,0-12,12.84c-1.16,6.06.06,13,4.69,17.81,4,4.22,10.52,5.88,16.68,5.28C211.66,246.42,225,236.26,219.82,223.53Z"/><path class="cls-4" d="M63.87,217.94A20.44,20.44,0,0,0,48,213.42a15.44,15.44,0,0,0-11.15,2.14c-5.92,3.53-10.54,9.12-11.63,15.39-1.13,6.59,1.82,13.19,8,17.13A19,19,0,0,0,46,250.6c10.24,1.12,22.34-4.65,24.58-13.55C72.28,230.42,69.33,222.72,63.87,217.94Z"/><path class="cls-2" d="M165.14,177.92a14.82,14.82,0,0,1,5.89.34c1.89.49,3.6,1.56,5.5,1.93,2.82.55,4.3-2.41,2.65-4.55-3.31-4.26-10.86-4.39-15.65-3.55-3.86.69-2.17,6.4,1.61,5.83Z"/><path class="cls-2" d="M66.74,181.86c3.23-3.31,6.76-3,11-3.16,2.63-.09,3.77-3.68,1.37-5-5.39-3.09-12.63-.12-16.52,4.08-2.55,2.75,1.49,6.83,4.13,4.13Z"/><path class="cls-1" d="M49,262.06c.16,15.46-.32,30.29,5.18,45s17.15,28.63,34.14,34.3c10.11,3.37,21.26,3.62,32.13,3.57,13.62-.07,27.45-.57,40.42-4.1s25.16-10.46,31.5-20.67c4.9-7.91,6-17.06,6.94-25.95,1.48-13.53,2.58-19.84,4.06-33.36,0,0-26.86,11.62-86.46,10.65C68.3,270.75,49,262.06,49,262.06Z"/><path class="cls-2" d="M43.64,275.48c0,16.29,2.46,33.73,11.94,47.43a58.38,58.38,0,0,0,38.28,24c9.1,1.58,18.35,1.69,27.56,1.62A238.59,238.59,0,0,0,150,347c15.64-2,33.93-6.74,44.3-19.63,6.19-7.7,7.66-17.06,8.87-26.57.56-4.37,1.09-8.74,1.63-13.11A108.06,108.06,0,0,0,206,274.3c0-3.72-5.54-4.54-6.51-.89-1.81,6.81-2.17,14.12-3.05,21.1-.95,7.52-1.36,15.73-4.53,22.72-6.17,13.62-22.92,19.13-36.49,21.68a161.52,161.52,0,0,1-26.35,2.35,245.68,245.68,0,0,1-26-.45C88.21,339.54,74.32,334,64.5,322.5c-10.91-12.81-13.7-30.75-14.21-47-.13-4.27-6.65-4.3-6.65,0Z"/><path class="cls-2" d="M119.82,218c.07,2.56.17,5.13.11,7.7a54.87,54.87,0,0,0-.12,7.69c.27,2.37,3.59,3.14,4.34.59,1.52-5.08,1-10.79.46-16-.32-3-4.89-3.15-4.79,0Z"/><path class="cls-2" d="M104.08,239.52a15.27,15.27,0,0,0,16,.18,16.13,16.13,0,0,0,2.25-1.69c.36-.34,2.3-1.88.79-1.29l-2.17-.29c1.57.9,2.83,2.34,4.41,3.26a15.49,15.49,0,0,0,5.59,2,11,11,0,0,0,9.86-3.4c2.4-2.74-1.62-6.77-4-4s-5.8,2.2-8.61.57c-2.21-1.3-4.39-4.66-7.26-3.3-1.15.54-1.66,1.66-2.56,2.5a9.19,9.19,0,0,1-3.62,2,9.35,9.35,0,0,1-8-1.16c-2.88-1.89-5.56,2.73-2.7,4.61Z"/><path class="cls-2" d="M129.14,215.72c-3.86-1.79-11.74-2.3-14.75.38-1.58,1.4-.4,3.15,2.11,4a10,10,0,0,0,3.71,1.15,9,9,0,0,0,3.29-.21c2.69-.35,5.14-1.37,6.34-2.63C130.67,217.57,130.66,216.43,129.14,215.72Z"/><path class="cls-2" d="M113.89,220.86c2.35,1.69,5.55,5.14,8.69,4.76,1.65-.2,2.87-1.41,4.14-2.38a53.52,53.52,0,0,0,4.81-3.8c2-2-.58-5.32-3-3.9a33.35,33.35,0,0,0-3.25,2.29c-.57.42-2.52,2.41-3.19,2.39s-1.94-1.18-2.57-1.62l-3.07-2.1c-2.7-1.85-5.14,2.49-2.55,4.36Z"/><path class="cls-1" d="M178.76,283a97.63,97.63,0,0,0-25.33,12.58c-4.83,3.37-9.53,7.48-11,12.85a6.43,6.43,0,0,0,0,4.33c1,2.31,4,3.5,6.72,3.42a21.78,21.78,0,0,0,7.76-2.2l20.39-8.68"/><path class="cls-2" d="M178,280.13A96.19,96.19,0,0,0,154,291c-6.11,3.92-13,9-15,16.45-2.29,8.78,6,13.2,13.61,11.43,4.36-1,8.55-3.32,12.65-5.07L178.92,308c1.61-.69,1.94-3,1.16-4.39-1-1.67-2.81-1.83-4.4-1.16-6.82,2.89-13.62,5.84-20.46,8.67-2.47,1-5.8,2.56-8.45,1.29s-.58-4.84.6-6.62c3.19-4.85,8.81-8.23,13.68-11.16a105,105,0,0,1,18.49-8.86c3.51-1.27,2.1-6.8-1.57-5.67Z"/><path class="cls-1" d="M74.42,285c13.53,4.17,28,9,35.86,19.68,1.08,1.47,2,3.15,1.84,4.9-.35,3.07-4.09,5-7.54,5.28-5.35.49-10.55-1.51-15.46-3.46L76,306.2"/><path class="cls-2" d="M73.73,287.61c11.38,3.55,24.07,7.24,32.32,16.56,1.62,1.83,4.68,4.86,1.57,6.55-2.81,1.55-6.64.87-9.57.12C90.77,309,83.94,305.39,76.82,303c-3.44-1.16-5.9,4.52-2.51,6.08,4.56,2.1,9.22,3.94,13.89,5.77,4.1,1.61,8.22,3.1,12.63,3.47,6.87.59,17.53-4,13.42-12.78-3.16-6.75-10.67-11.5-17-14.73-7-3.61-14.62-6-22.16-8.34-3.23-1-4.6,4.15-1.39,5.15Z"/><path class="cls-1" d="M94.66,335.88a88.54,88.54,0,0,0,7.76,29c1.4,2.88,3.06,5.73,5.56,7.68s6,2.83,8.83,1.47c4.68-2.25,5.19-8.72,5-14-.11-3.73.55-19.61.45-23.33"/><path class="cls-2" d="M90.23,342.2a83.17,83.17,0,0,0,7.2,25.93c2.77,5.82,8.87,10.1,15.4,10.11,3.8,0,7.66-1.17,9.91-4.37,2.12-3,2.53-6.93,2.55-10.53,0-3.2-.16-6.38-.05-9.59.13-3.47.7-7.33-.13-10.75-.66-2.71-5.06-2.85-5.63,0-1.06,5.26-.88,11.17-1,16.53a32.2,32.2,0,0,1-.7,8c-.72,2.72-2.16,3.47-5,3.41-5-.11-7.92-3.86-9.79-8a72.21,72.21,0,0,1-5.53-20.67c-.25-2-1.5-3.62-3.64-3.64-1.78,0-3.88,1.69-3.64,3.64Z"/><path class="cls-1" d="M128.61,339.83c-.34,4.38.12,14.85-.22,19.23-.38,4.82-.65,10.19,1.64,13.5,2.93,4.23,10.22,3.12,14-1.14s4.51-10.84,6.49-16.74c1.6-4.78,3.77-14.09,3-18.8"/><path class="cls-2" d="M125.74,344.17c-.29,3.91-.3,7.83-.48,11.75s-.72,7.79-.27,11.69c.79,6.87,5.34,11.52,12.47,11.19,7.46-.35,11.54-5.22,14.19-11.72a76.88,76.88,0,0,0,3.54-11.91,89.5,89.5,0,0,0,2.43-13.37c.26-3.5-4.73-3.73-5.8-.78-2.36,6.56-3,13.68-5.12,20.34-1.5,4.64-3.34,10.24-8.93,10.75-1.52.14-3.67,0-4.79-1.19-1.78-1.89-1.56-5.6-1.5-8,.16-6.24.36-12.56.79-18.79.29-4.2-6.21-4.16-6.53,0Z"/><path class="cls-1" d="M153.05,128.43c2.78-13.29,6.48-34.83,14.07-46.18,2.54-3.79,5.67-7.35,9.75-9.5s9.23-2.71,13.31-.58A14.39,14.39,0,0,1,197,81.33,32.17,32.17,0,0,1,197.49,93c-1.33,13-8.11,34.36-14.76,45.64"/><path class="cls-2" d="M156.76,119.49c1.75-7.91,3.66-15.84,6.69-23.36,2.84-7,7-15.43,13.58-19.69,3.21-2.08,7.45-3.22,11.11-1.65s5.41,5.22,6.09,8.82c1.47,7.67-.74,16.59-2.48,24.08a113.7,113.7,0,0,1-9.06,24.67,3.29,3.29,0,0,0,5.67,3.32c5-7.44,7.62-17.17,9.58-25.83,1-4.55,1.81-9.16,2.39-13.79.6-4.86,1.06-9.8,0-14.64C198.27,72,190.07,66.09,180.5,68S164.79,78.8,160.59,86.84c-5.08,9.74-7.6,20.32-9.72,31-.75,3.83,5,5.49,5.89,1.63Z"/><path class="cls-5" d="M181.18,86.64c-4.54-.85-7.64,2.77-9.24,6.31a117.48,117.48,0,0,0-5.12,13.73c-1.37,4.42-3.59,9.69-3.37,14.35a6.81,6.81,0,0,0,4.88,6.3c8.57,6.74,14.38-13.31,15.81-18.08C185.85,103.58,190.94,88.47,181.18,86.64Z"/><path class="cls-1" d="M60,143.71C53.82,129.63,48.26,100.76,51,85.76A27.15,27.15,0,0,1,55,75.06a14.69,14.69,0,0,1,9.77-6.39c4.68-.66,9.41,1.49,12.63,4.65s5.17,7.23,6.82,11.29c4.85,12,8.14,29.53,8.67,42.32"/><path class="cls-2" d="M60.9,135.06C55.05,121,52.12,104.33,54,89.12,54.85,82.24,57.6,72.4,66.07,72c9.36-.45,13.7,10.19,16.3,17.4A128.07,128.07,0,0,1,89,119.06c.48,4.43,7.49,4.45,7,0a138.12,138.12,0,0,0-6.78-31c-3.28-9.23-7.88-19.63-18.29-22.35C60.75,63.07,52.3,70.14,49.1,79.29c-3,8.65-3,18.59-2,27.59A100.92,100.92,0,0,0,55,137.57c1.48,3.32,7.37.9,5.95-2.51Z"/><path class="cls-5" d="M80.1,108.12a75.81,75.81,0,0,0-3.49-14.48c-1.33-3.69-3.74-8-8.79-7.6-4.89.41-6.59,4.84-6.74,8.67A79.63,79.63,0,0,0,62,110c1.06,7,3.48,24,15.57,18a3.37,3.37,0,0,0,1.2-1,7.37,7.37,0,0,0,2.54-4.23C82.2,118.15,80.79,112.62,80.1,108.12Z"/><text class="cls-6" transform="translate(19.49 43.15)">감사합니다</text></g></g></svg>